<svg xmlns="http://www.w3.org/2000/svg" xmlns:xlink="http://www.w3.org/1999/xlink" width="1920" zoomAndPan="magnify" viewBox="0 0 1440 809.999993" height="1080" preserveAspectRatio="xMidYMid meet" version="1.0"><defs><clipPath id="7fcc5da17a"><path d="M 315.625 0.617188 L 1124.5625 0.617188 L 1124.5625 809.554688 L 315.625 809.554688 Z M 315.625 0.617188 " clip-rule="nonzero"/></clipPath></defs><g clip-path="url(#7fcc5da17a)"><path fill="#ffffff" d="M 720.003906 0.617188 C 497.023438 0.617188 315.625 182.015625 315.625 404.996094 C 315.625 627.976562 497.023438 809.375 720.003906 809.375 C 942.984375 809.375 1124.382812 627.976562 1124.382812 404.996094 C 1124.382812 182.015625 942.984375 0.617188 720.003906 0.617188 Z M 720.003906 731.109375 C 540.183594 731.109375 393.890625 584.816406 393.890625 404.996094 C 393.890625 225.175781 540.183594 78.882812 720.003906 78.882812 C 899.824219 78.882812 1046.117188 225.175781 1046.117188 404.996094 C 1046.117188 584.816406 899.824219 731.109375 720.003906 731.109375 Z M 720.003906 731.109375 " fill-opacity="1" fill-rule="nonzero"/></g><path fill="#ffffff" d="M 720.003906 277.175781 C 698.386719 277.175781 680.871094 294.703125 680.871094 316.308594 L 680.871094 605.199219 C 680.871094 626.804688 698.386719 644.332031 720.003906 644.332031 C 741.621094 644.332031 759.136719 626.804688 759.136719 605.199219 L 759.136719 316.308594 C 759.136719 294.703125 741.621094 277.175781 720.003906 277.175781 Z M 720.003906 277.175781 " fill-opacity="1" fill-rule="nonzero"/><path fill="#ffffff" d="M 720.003906 165.660156 C 698.386719 165.660156 680.871094 183.1875 680.871094 204.792969 L 680.871094 204.921875 C 680.871094 226.523438 698.386719 244.003906 720.003906 244.003906 C 741.621094 244.003906 759.136719 226.398438 759.136719 204.792969 C 759.136719 183.1875 741.621094 165.660156 720.003906 165.660156 Z M 720.003906 165.660156 " fill-opacity="1" fill-rule="nonzero"/></svg>