<svg xmlns="http://www.w3.org/2000/svg" xmlns:xlink="http://www.w3.org/1999/xlink" width="1920" zoomAndPan="magnify" viewBox="0 0 1440 809.999993" height="1080" preserveAspectRatio="xMidYMid meet" version="1.0"><defs><clipPath id="bbb01230a6"><path d="M 315.625 0.617188 L 1124.5625 0.617188 L 1124.5625 809.554688 L 315.625 809.554688 Z M 315.625 0.617188 " clip-rule="nonzero"/></clipPath></defs><g clip-path="url(#bbb01230a6)"><path fill="#000000" d="M 720.09375 0.617188 C 497.066406 0.617188 315.625 182.054688 315.625 405.085938 C 315.625 628.113281 497.066406 809.554688 720.09375 809.554688 C 943.125 809.554688 1124.5625 628.113281 1124.5625 405.085938 C 1124.5625 182.054688 943.125 0.617188 720.09375 0.617188 Z M 720.09375 731.269531 C 540.234375 731.269531 393.910156 584.945312 393.910156 405.085938 C 393.910156 225.226562 540.234375 78.898438 720.09375 78.898438 C 899.957031 78.898438 1046.28125 225.226562 1046.28125 405.085938 C 1046.28125 584.945312 899.957031 731.269531 720.09375 731.269531 Z M 720.09375 731.269531 " fill-opacity="1" fill-rule="nonzero"/></g><path fill="#000000" d="M 720.09375 277.234375 C 698.472656 277.234375 680.953125 294.769531 680.953125 316.378906 L 680.953125 605.332031 C 680.953125 626.941406 698.472656 644.476562 720.09375 644.476562 C 741.71875 644.476562 759.238281 626.941406 759.238281 605.332031 L 759.238281 316.378906 C 759.238281 294.769531 741.71875 277.234375 720.09375 277.234375 Z M 720.09375 277.234375 " fill-opacity="1" fill-rule="nonzero"/><path fill="#000000" d="M 720.09375 165.695312 C 698.472656 165.695312 680.953125 183.226562 680.953125 204.839844 L 680.953125 204.964844 C 680.953125 226.574219 698.472656 244.058594 720.09375 244.058594 C 741.71875 244.058594 759.238281 226.449219 759.238281 204.839844 C 759.238281 183.226562 741.71875 165.695312 720.09375 165.695312 Z M 720.09375 165.695312 " fill-opacity="1" fill-rule="nonzero"/></svg>