<svg xmlns="http://www.w3.org/2000/svg" xmlns:xlink="http://www.w3.org/1999/xlink" width="1920" zoomAndPan="magnify" viewBox="0 0 1440 809.999993" height="1080" preserveAspectRatio="xMidYMid meet" version="1.0"><defs><clipPath id="848d0171e9"><path d="M 315.5625 0.808594 L 1124.390625 0.808594 L 1124.390625 809.636719 L 315.5625 809.636719 Z M 315.5625 0.808594 " clip-rule="nonzero"/></clipPath></defs><g clip-path="url(#848d0171e9)"><path fill="#000000" d="M 719.976562 0.808594 C 496.398438 0.808594 315.5625 181.644531 315.5625 405.222656 C 315.5625 628.800781 496.398438 809.636719 719.976562 809.636719 C 943.554688 809.636719 1124.390625 628.800781 1124.390625 405.222656 C 1124.390625 181.644531 943.554688 0.808594 719.976562 0.808594 Z M 719.976562 789.910156 C 618.875 789.910156 525.988281 750.453125 457.765625 685.515625 C 460.230469 597.566406 530.921875 521.121094 635.3125 492.351562 C 593.390625 464.402344 566.265625 417.550781 566.265625 364.121094 C 566.265625 279.457031 635.3125 209.589844 720.800781 209.589844 C 806.285156 209.589844 874.507812 279.457031 874.507812 364.121094 C 874.507812 417.550781 846.5625 465.226562 805.464844 492.351562 C 909.03125 521.121094 979.722656 597.566406 982.1875 685.515625 C 913.964844 749.632812 821.082031 789.910156 719.976562 789.910156 Z M 719.976562 789.910156 " fill-opacity="1" fill-rule="nonzero"/></g></svg>