<svg xmlns="http://www.w3.org/2000/svg" xmlns:xlink="http://www.w3.org/1999/xlink" width="1920" zoomAndPan="magnify" viewBox="0 0 1440 809.999993" height="1080" preserveAspectRatio="xMidYMid meet" version="1.0"><defs><g/><clipPath id="e55af85ef6"><path d="M 463.269531 148.480469 L 976.082031 148.480469 L 976.082031 661.296875 L 463.269531 661.296875 Z M 463.269531 148.480469 " clip-rule="nonzero"/></clipPath><clipPath id="3c437fc097"><path d="M 463.269531 342.328125 L 976.359375 342.328125 L 976.359375 466.816406 L 463.269531 466.816406 Z M 463.269531 342.328125 " clip-rule="nonzero"/></clipPath><clipPath id="068e6df7ca"><path d="M 463.4375 342.328125 L 976.183594 342.328125 C 976.277344 342.328125 976.355469 342.402344 976.355469 342.496094 L 976.355469 466.648438 C 976.355469 466.742188 976.277344 466.816406 976.183594 466.816406 L 463.4375 466.816406 C 463.34375 466.816406 463.269531 466.742188 463.269531 466.648438 L 463.269531 342.496094 C 463.269531 342.402344 463.34375 342.328125 463.4375 342.328125 Z M 463.4375 342.328125 " clip-rule="nonzero"/></clipPath></defs><g clip-path="url(#e55af85ef6)"><path fill="#ffffff" d="M 719.8125 661.566406 C 578.355469 661.566406 463.269531 546.480469 463.269531 405.023438 C 463.269531 263.570312 578.355469 148.480469 719.8125 148.480469 C 861.265625 148.480469 976.355469 263.546875 976.355469 405.023438 C 976.355469 546.503906 861.265625 661.566406 719.8125 661.566406 Z M 719.8125 170.789062 C 590.648438 170.789062 485.578125 275.859375 485.578125 405.023438 C 485.578125 534.1875 590.648438 639.257812 719.8125 639.257812 C 848.976562 639.257812 954.046875 534.1875 954.046875 405.023438 C 954.046875 275.859375 848.976562 170.789062 719.8125 170.789062 Z M 719.8125 170.789062 " fill-opacity="1" fill-rule="nonzero"/></g><path fill="#ffffff" d="M 960.402344 367.636719 C 957.191406 367.636719 954 366.253906 951.792969 363.578125 C 873.492188 268.722656 770.761719 254 698.171875 258.527344 C 602.695312 264.351562 518.371094 307.472656 494.96875 344.101562 C 491.644531 349.277344 484.75 350.792969 479.578125 347.492188 C 474.378906 344.191406 472.863281 337.296875 476.1875 332.101562 C 502.710938 290.539062 589.0625 242.824219 696.835938 236.265625 C 806.546875 229.59375 903.273438 269.75 969.015625 349.386719 C 972.941406 354.140625 972.273438 361.167969 967.519531 365.09375 C 965.421875 366.789062 962.902344 367.636719 960.402344 367.636719 Z M 960.402344 367.636719 " fill-opacity="1" fill-rule="nonzero"/><path fill="#ffffff" d="M 519.039062 550.027344 C 512.882812 550.027344 507.886719 545.03125 507.886719 538.871094 C 507.886719 511.769531 540.566406 474.359375 581.949219 427 C 628.460938 373.75 686.347656 307.515625 686.347656 260.023438 C 686.347656 234.367188 679.722656 215.742188 666.652344 204.675781 C 648.136719 188.992188 621.542969 192.917969 621.253906 192.941406 C 615.1875 194.058594 609.429688 189.839844 608.425781 183.773438 C 607.402344 177.707031 611.527344 171.949219 617.597656 170.945312 C 619.070312 170.679688 654.425781 165.101562 681.085938 187.65625 C 699.378906 203.160156 708.65625 227.496094 708.65625 260.023438 C 708.65625 315.882812 650.277344 382.714844 598.746094 441.675781 C 565.0625 480.246094 530.191406 520.132812 530.191406 538.871094 C 530.191406 545.03125 525.195312 550.027344 519.039062 550.027344 Z M 519.039062 550.027344 " fill-opacity="1" fill-rule="nonzero"/><path fill="#ffffff" d="M 686.347656 650.414062 C 684.476562 650.414062 682.558594 649.945312 680.792969 648.941406 C 675.441406 645.863281 673.613281 639.058594 676.667969 633.703125 C 741.695312 520.582031 753.273438 476.03125 753.273438 170.789062 C 753.273438 164.609375 758.269531 159.636719 764.425781 159.636719 C 770.585938 159.636719 775.582031 164.632812 775.582031 170.789062 C 775.582031 468.757812 766.660156 521.917969 696.03125 644.8125 C 693.957031 648.40625 690.207031 650.414062 686.347656 650.414062 Z M 686.347656 650.414062 " fill-opacity="1" fill-rule="nonzero"/><path fill="#ffffff" d="M 887.121094 594.644531 C 885.492188 594.644531 883.84375 594.285156 882.257812 593.527344 C 876.703125 590.828125 874.40625 584.15625 877.105469 578.625 C 902.671875 526.023438 880.09375 471.949219 856.203125 414.730469 C 838.492188 372.320312 820.199219 328.507812 820.199219 282.332031 C 820.199219 209.695312 874.496094 204.339844 875.03125 204.296875 C 881.1875 203.695312 886.5625 208.335938 887.078125 214.492188 C 887.589844 220.625 883.039062 226.023438 876.882812 226.539062 C 873.492188 226.871094 842.503906 231.648438 842.503906 282.332031 C 842.503906 324.046875 859.929688 365.761719 876.769531 406.117188 C 901.511719 465.414062 927.097656 526.691406 897.160156 588.351562 C 895.21875 592.324219 891.25 594.644531 887.121094 594.644531 Z M 887.121094 594.644531 " fill-opacity="1" fill-rule="nonzero"/><g clip-path="url(#3c437fc097)"><g clip-path="url(#068e6df7ca)"><path fill="#000000" d="M 463.269531 342.328125 L 976.359375 342.328125 L 976.359375 466.816406 L 463.269531 466.816406 Z M 463.269531 342.328125 " fill-opacity="1" fill-rule="nonzero"/></g></g><g fill="#ffffff" fill-opacity="1"><g transform="translate(611.713492, 422.877193)"><g><path d="M 62.96875 0 L 43.28125 0 L 20.96875 -26.71875 L 20.96875 0 L 4.40625 0 L 4.40625 -39.484375 L 24.09375 -39.484375 L 46.40625 -12.90625 L 46.40625 -39.484375 L 62.96875 -39.484375 Z M 62.96875 0 "/></g></g></g><g fill="#ffffff" fill-opacity="1"><g transform="translate(676.82759, 422.877193)"><g/></g></g><g fill="#ffffff" fill-opacity="1"><g transform="translate(688.548279, 422.877193)"><g><path d="M 32.71875 0 L 4.40625 0 L 4.40625 -39.453125 L 33.3125 -39.453125 C 38.445312 -39.453125 42.675781 -39.21875 46 -38.75 C 49.320312 -38.28125 51.878906 -37.546875 53.671875 -36.546875 C 55.472656 -35.546875 56.691406 -34.273438 57.328125 -32.734375 C 57.972656 -31.191406 58.296875 -29.347656 58.296875 -27.203125 C 58.242188 -25.515625 57.78125 -24.113281 56.90625 -23 C 56.03125 -21.894531 55.007812 -21.070312 53.84375 -20.53125 C 52.6875 -19.988281 51.664062 -19.71875 50.78125 -19.71875 C 51.644531 -19.71875 52.65625 -19.546875 53.8125 -19.203125 C 54.96875 -18.867188 56.085938 -18.378906 57.171875 -17.734375 C 58.265625 -17.097656 59.175781 -16.320312 59.90625 -15.40625 C 60.632812 -14.488281 61 -13.441406 61 -12.265625 C 61 -10.722656 60.816406 -9.3125 60.453125 -8.03125 C 60.097656 -6.75 59.382812 -5.613281 58.3125 -4.625 C 57.238281 -3.632812 55.65625 -2.796875 53.5625 -2.109375 C 51.46875 -1.421875 48.726562 -0.894531 45.34375 -0.53125 C 41.96875 -0.175781 37.757812 0 32.71875 0 Z M 31.78125 -23.109375 C 34.195312 -23.109375 36.066406 -23.226562 37.390625 -23.46875 C 38.722656 -23.707031 39.644531 -24.066406 40.15625 -24.546875 C 40.675781 -25.035156 40.9375 -25.65625 40.9375 -26.40625 C 40.9375 -27.175781 40.675781 -27.804688 40.15625 -28.296875 C 39.644531 -28.785156 38.722656 -29.144531 37.390625 -29.375 C 36.066406 -29.601562 34.195312 -29.71875 31.78125 -29.71875 L 20.96875 -29.71875 L 20.96875 -23.109375 Z M 31.78125 -9.734375 C 34.25 -9.734375 36.253906 -9.796875 37.796875 -9.921875 C 39.335938 -10.054688 40.46875 -10.351562 41.1875 -10.8125 C 41.90625 -11.269531 42.265625 -12.015625 42.265625 -13.046875 C 42.265625 -14.066406 41.90625 -14.8125 41.1875 -15.28125 C 40.46875 -15.75 39.335938 -16.039062 37.796875 -16.15625 C 36.253906 -16.28125 34.25 -16.34375 31.78125 -16.34375 L 20.96875 -16.34375 L 20.96875 -9.734375 Z M 31.78125 -9.734375 "/></g></g></g><g fill="#ffffff" fill-opacity="1"><g transform="translate(749.481136, 422.877193)"><g/></g></g><g fill="#ffffff" fill-opacity="1"><g transform="translate(761.201833, 422.877193)"><g><path d="M 66.296875 0 L 49.515625 0 L 45.8125 -6.46875 L 20.90625 -6.46875 L 17.1875 0 L 0.40625 0 L 25.671875 -39.453125 L 41.046875 -39.453125 Z M 40.21875 -16.234375 L 33.375 -28.203125 L 26.5 -16.234375 Z M 40.21875 -16.234375 "/></g></g></g></svg>