<svg xmlns="http://www.w3.org/2000/svg" xmlns:xlink="http://www.w3.org/1999/xlink" width="1920" zoomAndPan="magnify" viewBox="0 0 1440 809.999993" height="1080" preserveAspectRatio="xMidYMid meet" version="1.0"><defs><g/><clipPath id="21b156a4d9"><path d="M 463.269531 148.480469 L 976.082031 148.480469 L 976.082031 661.296875 L 463.269531 661.296875 Z M 463.269531 148.480469 " clip-rule="nonzero"/></clipPath><clipPath id="46410cea26"><path d="M 463.269531 342.328125 L 976.359375 342.328125 L 976.359375 466.816406 L 463.269531 466.816406 Z M 463.269531 342.328125 " clip-rule="nonzero"/></clipPath><clipPath id="3ea45efe84"><path d="M 463.4375 342.328125 L 976.183594 342.328125 C 976.277344 342.328125 976.355469 342.402344 976.355469 342.496094 L 976.355469 466.648438 C 976.355469 466.742188 976.277344 466.816406 976.183594 466.816406 L 463.4375 466.816406 C 463.34375 466.816406 463.269531 466.742188 463.269531 466.648438 L 463.269531 342.496094 C 463.269531 342.402344 463.34375 342.328125 463.4375 342.328125 Z M 463.4375 342.328125 " clip-rule="nonzero"/></clipPath></defs><g clip-path="url(#21b156a4d9)"><path fill="#000000" d="M 719.675781 661.296875 C 578.296875 661.296875 463.269531 546.269531 463.269531 404.890625 C 463.269531 263.507812 578.296875 148.480469 719.675781 148.480469 C 861.054688 148.480469 976.082031 263.484375 976.082031 404.890625 C 976.082031 546.292969 861.054688 661.296875 719.675781 661.296875 Z M 719.675781 170.777344 C 590.582031 170.777344 485.566406 275.792969 485.566406 404.890625 C 485.566406 533.984375 590.582031 639 719.675781 639 C 848.769531 639 953.785156 533.984375 953.785156 404.890625 C 953.785156 275.792969 848.769531 170.777344 719.675781 170.777344 Z M 719.675781 170.777344 " fill-opacity="1" fill-rule="nonzero"/></g><path fill="#000000" d="M 960.140625 367.519531 C 956.929688 367.519531 953.742188 366.136719 951.535156 363.460938 C 873.273438 268.660156 770.601562 253.945312 698.046875 258.46875 C 602.621094 264.289062 518.339844 307.386719 494.953125 343.996094 C 491.628906 349.171875 484.742188 350.6875 479.566406 347.386719 C 474.371094 344.085938 472.855469 337.199219 476.179688 332.003906 C 502.6875 290.464844 588.996094 242.773438 696.710938 236.21875 C 806.363281 229.550781 903.039062 269.683594 968.746094 349.28125 C 972.671875 354.03125 972.003906 361.054688 967.253906 364.980469 C 965.15625 366.671875 962.636719 367.519531 960.140625 367.519531 Z M 960.140625 367.519531 " fill-opacity="1" fill-rule="nonzero"/><path fill="#000000" d="M 519.007812 549.8125 C 512.855469 549.8125 507.863281 544.820312 507.863281 538.667969 C 507.863281 511.578125 540.527344 474.183594 581.886719 426.851562 C 628.371094 373.628906 686.230469 307.433594 686.230469 259.964844 C 686.230469 234.324219 679.609375 215.707031 666.542969 204.644531 C 648.039062 188.972656 621.460938 192.894531 621.171875 192.917969 C 615.105469 194.035156 609.355469 189.820312 608.351562 183.753906 C 607.324219 177.691406 611.449219 171.9375 617.515625 170.933594 C 618.984375 170.667969 654.324219 165.09375 680.96875 187.632812 C 699.253906 203.128906 708.527344 227.457031 708.527344 259.964844 C 708.527344 315.792969 650.179688 382.59375 598.675781 441.523438 C 565.007812 480.070312 530.15625 519.9375 530.15625 538.667969 C 530.15625 544.820312 525.164062 549.8125 519.007812 549.8125 Z M 519.007812 549.8125 " fill-opacity="1" fill-rule="nonzero"/><path fill="#000000" d="M 686.230469 650.148438 C 684.359375 650.148438 682.441406 649.679688 680.679688 648.675781 C 675.328125 645.597656 673.5 638.796875 676.554688 633.449219 C 741.546875 520.382812 753.121094 475.859375 753.121094 170.777344 C 753.121094 164.601562 758.113281 159.628906 764.269531 159.628906 C 770.421875 159.628906 775.417969 164.625 775.417969 170.777344 C 775.417969 468.589844 766.496094 521.722656 695.90625 644.550781 C 693.835938 648.140625 690.089844 650.148438 686.230469 650.148438 Z M 686.230469 650.148438 " fill-opacity="1" fill-rule="nonzero"/><path fill="#000000" d="M 886.898438 594.40625 C 885.269531 594.40625 883.621094 594.050781 882.035156 593.292969 C 876.484375 590.59375 874.1875 583.925781 876.886719 578.398438 C 902.4375 525.824219 879.875 471.777344 855.996094 414.585938 C 838.292969 372.203125 820.007812 328.414062 820.007812 282.257812 C 820.007812 209.664062 874.277344 204.3125 874.8125 204.265625 C 880.964844 203.664062 886.339844 208.304688 886.851562 214.457031 C 887.367188 220.589844 882.816406 225.984375 876.664062 226.496094 C 873.273438 226.832031 842.304688 231.601562 842.304688 282.257812 C 842.304688 323.953125 859.71875 365.648438 876.550781 405.980469 C 901.277344 465.246094 926.851562 526.492188 896.929688 588.121094 C 894.992188 592.089844 891.023438 594.40625 886.898438 594.40625 Z M 886.898438 594.40625 " fill-opacity="1" fill-rule="nonzero"/><g clip-path="url(#46410cea26)"><g clip-path="url(#3ea45efe84)"><path fill="#ffffff" d="M 463.269531 342.328125 L 976.359375 342.328125 L 976.359375 466.816406 L 463.269531 466.816406 Z M 463.269531 342.328125 " fill-opacity="1" fill-rule="nonzero"/></g></g><g fill="#000000" fill-opacity="1"><g transform="translate(611.713492, 422.877193)"><g><path d="M 62.96875 0 L 43.28125 0 L 20.96875 -26.71875 L 20.96875 0 L 4.40625 0 L 4.40625 -39.484375 L 24.09375 -39.484375 L 46.40625 -12.90625 L 46.40625 -39.484375 L 62.96875 -39.484375 Z M 62.96875 0 "/></g></g></g><g fill="#000000" fill-opacity="1"><g transform="translate(676.82759, 422.877193)"><g/></g></g><g fill="#000000" fill-opacity="1"><g transform="translate(688.548279, 422.877193)"><g><path d="M 32.71875 0 L 4.40625 0 L 4.40625 -39.453125 L 33.3125 -39.453125 C 38.445312 -39.453125 42.675781 -39.21875 46 -38.75 C 49.320312 -38.28125 51.878906 -37.546875 53.671875 -36.546875 C 55.472656 -35.546875 56.691406 -34.273438 57.328125 -32.734375 C 57.972656 -31.191406 58.296875 -29.347656 58.296875 -27.203125 C 58.242188 -25.515625 57.78125 -24.113281 56.90625 -23 C 56.03125 -21.894531 55.007812 -21.070312 53.84375 -20.53125 C 52.6875 -19.988281 51.664062 -19.71875 50.78125 -19.71875 C 51.644531 -19.71875 52.65625 -19.546875 53.8125 -19.203125 C 54.96875 -18.867188 56.085938 -18.378906 57.171875 -17.734375 C 58.265625 -17.097656 59.175781 -16.320312 59.90625 -15.40625 C 60.632812 -14.488281 61 -13.441406 61 -12.265625 C 61 -10.722656 60.816406 -9.3125 60.453125 -8.03125 C 60.097656 -6.75 59.382812 -5.613281 58.3125 -4.625 C 57.238281 -3.632812 55.65625 -2.796875 53.5625 -2.109375 C 51.46875 -1.421875 48.726562 -0.894531 45.34375 -0.53125 C 41.96875 -0.175781 37.757812 0 32.71875 0 Z M 31.78125 -23.109375 C 34.195312 -23.109375 36.066406 -23.226562 37.390625 -23.46875 C 38.722656 -23.707031 39.644531 -24.066406 40.15625 -24.546875 C 40.675781 -25.035156 40.9375 -25.65625 40.9375 -26.40625 C 40.9375 -27.175781 40.675781 -27.804688 40.15625 -28.296875 C 39.644531 -28.785156 38.722656 -29.144531 37.390625 -29.375 C 36.066406 -29.601562 34.195312 -29.71875 31.78125 -29.71875 L 20.96875 -29.71875 L 20.96875 -23.109375 Z M 31.78125 -9.734375 C 34.25 -9.734375 36.253906 -9.796875 37.796875 -9.921875 C 39.335938 -10.054688 40.46875 -10.351562 41.1875 -10.8125 C 41.90625 -11.269531 42.265625 -12.015625 42.265625 -13.046875 C 42.265625 -14.066406 41.90625 -14.8125 41.1875 -15.28125 C 40.46875 -15.75 39.335938 -16.039062 37.796875 -16.15625 C 36.253906 -16.28125 34.25 -16.34375 31.78125 -16.34375 L 20.96875 -16.34375 L 20.96875 -9.734375 Z M 31.78125 -9.734375 "/></g></g></g><g fill="#000000" fill-opacity="1"><g transform="translate(749.481136, 422.877193)"><g/></g></g><g fill="#000000" fill-opacity="1"><g transform="translate(761.201833, 422.877193)"><g><path d="M 66.296875 0 L 49.515625 0 L 45.8125 -6.46875 L 20.90625 -6.46875 L 17.1875 0 L 0.40625 0 L 25.671875 -39.453125 L 41.046875 -39.453125 Z M 40.21875 -16.234375 L 33.375 -28.203125 L 26.5 -16.234375 Z M 40.21875 -16.234375 "/></g></g></g></svg>